<?xml version="1.0" standalone="no"?>
<!DOCTYPE svg PUBLIC "-//W3C//DTD SVG 20010904//EN"
 "http://www.w3.org/TR/2001/REC-SVG-20010904/DTD/svg10.dtd">
<svg version="1.0" xmlns="http://www.w3.org/2000/svg"
 width="536.000000pt" height="536.000000pt" viewBox="0 0 536.000000 536.000000"
 preserveAspectRatio="xMidYMid meet">
<metadata>
Created by potrace 1.11, written by Peter Selinger 2001-2013
</metadata>
<g transform="translate(0.000000,536.000000) scale(0.100000,-0.100000)"
fill="#000000" stroke="none">
<path d="M3163 4954 c4 -7 -2 -14 -13 -17 -11 -3 -18 -1 -14 4 8 13 -10 11
-24 -3 -10 -10 -15 -10 -21 1 -6 10 -10 10 -16 1 -4 -6 -13 -9 -21 -6 -8 3
-14 1 -14 -4 0 -6 -4 -10 -10 -10 -5 0 -7 8 -4 18 5 16 5 16 -6 -1 -6 -9 -15
-15 -21 -12 -5 4 -9 2 -9 -4 0 -5 6 -12 13 -14 9 -4 9 -6 0 -6 -6 -1 -15 4
-18 10 -5 6 -12 4 -22 -8 -9 -11 -12 -12 -8 -3 4 8 -1 6 -9 -4 -12 -15 -16
-16 -16 -5 -1 10 -4 9 -15 -5 -8 -10 -12 -24 -8 -30 3 -6 0 -5 -8 2 -19 17
-32 15 -25 -4 6 -15 4 -15 -11 -3 -14 12 -16 12 -8 0 6 -11 4 -13 -10 -7 -14
5 -15 4 -7 -7 8 -10 6 -16 -11 -27 -20 -12 -21 -12 -8 4 12 14 12 16 -3 10
-14 -5 -20 -17 -18 -35 1 -4 -6 -6 -16 -5 -10 0 -16 -6 -16 -16 1 -10 -1 -17
-5 -16 -16 3 -40 -15 -34 -26 4 -6 -2 -4 -12 4 -15 12 -17 12 -10 1 6 -11 4
-13 -8 -8 -13 5 -17 1 -17 -16 0 -17 -2 -19 -10 -7 -8 12 -10 12 -16 -3 -3 -9
-10 -17 -16 -17 -5 0 -6 6 -3 13 4 6 -1 3 -9 -7 -9 -11 -16 -14 -16 -8 0 7 -5
12 -11 12 -6 0 -9 -6 -6 -14 5 -11 0 -13 -24 -6 -18 5 -27 5 -24 -1 4 -5 -5
-9 -19 -9 -14 0 -26 -5 -26 -12 0 -6 -7 -3 -15 8 -15 18 -15 18 -8 0 4 -13 3
-17 -5 -12 -7 4 -12 2 -12 -4 0 -6 -4 -9 -9 -5 -6 3 -14 -3 -20 -12 -8 -14
-10 -15 -11 -3 0 13 -2 13 -9 0 -6 -8 -8 -17 -5 -21 2 -4 -3 -9 -11 -12 -8 -4
-13 -1 -11 6 1 7 1 9 -1 5 -3 -5 -12 -8 -21 -8 -13 0 -14 -2 -3 -9 9 -6 10
-11 2 -15 -6 -4 -8 -12 -5 -18 4 -7 2 -8 -5 -4 -6 4 -9 12 -6 17 4 5 4 9 0 9
-3 0 -10 -11 -15 -25 -5 -14 -15 -24 -22 -23 -7 2 -12 -5 -10 -14 2 -10 -2
-18 -9 -18 -7 0 -9 -9 -6 -21 3 -12 3 -18 0 -15 -9 9 -35 -32 -28 -44 3 -6 -1
-13 -10 -16 -13 -6 -14 -8 -3 -15 10 -7 10 -9 1 -9 -7 0 -13 -7 -13 -16 0 -8
-4 -12 -10 -9 -5 3 -10 1 -10 -4 0 -6 5 -11 12 -11 6 0 3 -7 -8 -15 -19 -15
-19 -15 1 -9 20 6 20 5 1 -10 -15 -12 -16 -16 -5 -16 12 0 12 -2 -1 -10 -8 -5
-11 -10 -6 -10 5 0 3 -7 -4 -15 -10 -12 -10 -15 1 -15 8 0 6 -5 -6 -14 -18
-13 -18 -13 1 -24 10 -6 14 -12 8 -12 -15 0 -24 -49 -11 -57 6 -4 3 -12 -8
-20 -11 -7 -13 -13 -7 -13 7 0 12 -5 12 -11 0 -5 -4 -8 -8 -5 -5 3 -9 -2 -9
-10 0 -9 6 -13 16 -9 11 4 10 1 -4 -15 -12 -13 -14 -20 -5 -20 10 0 10 -3 0
-15 -10 -12 -10 -15 0 -15 9 0 9 -4 -1 -17 -12 -15 -12 -16 1 -8 12 7 13 6 4
-6 -12 -15 -15 -49 -4 -49 4 0 7 -7 7 -15 0 -8 -4 -12 -9 -9 -4 3 -8 0 -8 -5
0 -6 6 -11 13 -11 8 0 7 -4 -3 -10 -12 -8 -12 -10 -1 -10 11 0 11 -3 1 -15 -9
-11 -9 -15 -1 -15 9 0 9 -5 1 -20 -8 -14 -8 -20 0 -20 8 0 8 -6 0 -20 -8 -14
-8 -20 0 -20 6 0 8 -5 5 -10 -4 -6 -8 -24 -10 -41 -3 -21 -1 -28 8 -23 7 4 3
-2 -7 -14 -20 -23 -32 -30 -21 -12 3 6 1 10 -4 10 -6 0 -11 -5 -11 -11 0 -6
-8 -3 -17 8 -10 10 -14 13 -9 6 6 -10 4 -12 -8 -7 -9 3 -16 9 -16 13 0 4 -15
8 -32 9 -18 2 -35 7 -37 13 -1 5 -10 2 -18 -8 -11 -13 -13 -14 -10 -3 5 18
-29 25 -39 9 -4 -6 -11 -6 -20 2 -11 9 -17 9 -29 -1 -12 -10 -15 -10 -15 1 0
11 -2 11 -8 2 -5 -7 -20 -14 -34 -15 -15 -1 -24 -6 -21 -11 3 -5 -4 -6 -17 -2
-14 4 -20 3 -16 -3 8 -14 -20 -35 -51 -38 -15 -2 -36 -14 -47 -27 -12 -13 -27
-22 -35 -19 -8 3 -11 0 -7 -7 7 -10 -13 -16 -38 -12 -5 1 -6 -5 -3 -13 4 -11
1 -13 -11 -9 -14 6 -15 4 -4 -9 10 -13 9 -15 -13 -13 -13 2 -24 0 -24 -3 1 -4
0 -10 -1 -14 -5 -17 -8 -29 -9 -49 0 -11 -5 -18 -10 -15 -5 4 -8 -5 -6 -20 2
-18 -1 -24 -12 -20 -9 4 -11 2 -6 -7 11 -18 12 -37 2 -37 -5 0 -7 -13 -5 -30
2 -16 0 -27 -4 -25 -4 3 -11 -2 -14 -11 -4 -10 -2 -13 6 -8 7 5 9 2 5 -8 -3
-9 0 -21 6 -27 9 -9 8 -11 -5 -6 -19 8 -25 -9 -8 -20 8 -5 7 -11 -1 -21 -9
-11 -8 -14 2 -14 12 0 12 -2 0 -9 -8 -6 -11 -16 -6 -31 4 -13 3 -20 -2 -17 -5
3 -9 -3 -9 -13 0 -10 4 -17 7 -14 4 2 10 0 14 -6 3 -5 0 -10 -7 -10 -7 0 -14
-11 -14 -25 -1 -14 1 -23 5 -21 4 3 7 -4 7 -15 0 -10 -6 -19 -14 -19 -10 0
-10 -4 2 -16 21 -20 20 -28 0 -20 -14 5 -15 4 -4 -9 7 -9 10 -18 7 -22 -4 -3
-2 -14 4 -24 5 -11 6 -19 2 -18 -20 3 -27 -2 -14 -10 12 -8 13 -14 2 -37 -10
-23 -10 -25 1 -16 11 8 14 7 14 -9 0 -13 -5 -18 -15 -14 -10 4 -11 2 -3 -7 17
-21 18 -72 2 -86 -8 -7 -10 -12 -5 -11 24 3 27 -2 9 -17 -10 -8 -14 -13 -9
-10 6 2 17 1 25 -5 11 -6 12 -9 2 -9 -9 0 -11 -7 -7 -21 6 -16 4 -20 -6 -14
-11 6 -12 5 -1 -6 16 -17 16 -32 0 -23 -7 4 -6 -1 3 -12 20 -23 14 -45 -9 -37
-14 6 -15 5 -2 -9 8 -9 19 -13 24 -10 5 3 5 -1 0 -9 -11 -19 -13 -58 -2 -65 4
-3 4 -14 -2 -24 -12 -22 -13 -33 -2 -26 4 2 8 -4 8 -14 0 -10 -4 -17 -8 -14
-4 2 -6 -5 -5 -16 1 -11 6 -20 12 -20 6 0 7 -3 0 -8 -15 -11 -17 -32 -3 -32 9
0 8 -4 -2 -10 -13 -8 -13 -10 0 -10 10 0 11 -3 2 -12 -7 -7 -8 -17 -2 -28 5
-9 5 -22 0 -30 -5 -8 -4 -22 1 -32 6 -11 6 -18 0 -18 -11 0 -9 -19 3 -39 6
-10 5 -12 -2 -7 -7 4 -12 2 -12 -3 0 -6 5 -11 11 -11 5 0 7 -5 4 -10 -4 -6
-12 -7 -18 -4 -9 5 -9 4 0 -6 6 -7 9 -19 6 -28 -5 -11 -3 -13 8 -7 11 7 12 6
3 -6 -6 -8 -9 -29 -7 -47 2 -24 -1 -31 -10 -26 -6 4 -3 -3 8 -16 11 -13 15
-20 8 -16 -15 8 -13 -45 2 -56 6 -5 5 -8 -2 -8 -7 0 -13 -7 -13 -16 0 -8 5
-12 11 -8 6 3 3 -6 -7 -22 -11 -16 -13 -25 -6 -20 16 10 13 -25 -3 -36 -6 -4
-2 -8 8 -8 15 0 16 -3 6 -22 -11 -21 -11 -22 5 -9 14 12 16 12 10 -4 -5 -12
-4 -16 4 -11 7 4 10 -1 7 -14 -2 -11 1 -20 6 -20 6 0 17 -7 26 -15 8 -8 19
-13 24 -10 13 9 11 -9 -3 -25 -11 -12 -10 -12 4 -2 13 10 17 10 20 0 3 -8 7
-6 11 6 5 11 3 15 -5 10 -7 -4 -8 -3 -4 4 5 9 14 7 32 -4 23 -16 24 -16 17 2
-6 17 -5 18 12 4 10 -8 16 -10 12 -4 -4 7 1 18 10 25 12 10 14 10 9 1 -4 -6
-3 -12 2 -12 5 0 14 10 20 23 6 12 11 16 11 10 1 -7 6 -13 12 -13 5 0 8 4 5 8
-2 4 4 14 16 21 16 10 19 10 13 -1 -3 -7 1 -4 9 6 9 11 16 24 16 29 0 4 5 5
10 2 5 -3 10 -2 10 4 0 6 8 8 18 5 13 -5 14 -4 3 4 -16 11 -5 36 11 26 8 -5 9
-1 4 11 -6 16 -4 16 10 4 16 -13 16 -12 4 11 -12 23 -12 24 4 11 9 -8 19 -11
23 -7 3 3 2 6 -4 6 -5 0 -10 7 -10 15 0 8 4 12 9 9 5 -4 12 4 15 16 4 16 8 18
14 8 7 -10 9 -9 10 5 3 31 4 35 13 44 5 4 6 3 3 -3 -4 -7 -1 -14 6 -17 10 -4
13 2 10 18 -3 15 2 27 16 37 11 8 18 18 14 21 -3 4 5 7 18 7 17 0 20 3 11 9
-11 7 -10 9 3 15 10 3 13 11 9 18 -5 8 0 7 11 -2 10 -8 16 -10 12 -3 -4 6 -1
14 5 16 10 4 10 6 1 6 -7 1 -13 6 -13 12 0 6 7 9 15 5 9 -3 15 0 15 9 0 14 11
19 37 16 7 -1 10 5 7 13 -3 9 6 27 22 43 15 15 21 19 13 9 -12 -18 -12 -19 2
-14 13 5 16 2 12 -15 -4 -18 -3 -19 6 -7 13 18 14 1 1 -20 -5 -9 -5 -19 1 -26
7 -8 6 -15 -2 -20 -8 -5 -9 -3 -4 6 5 9 4 11 -4 6 -9 -6 -9 -11 -1 -21 8 -10
7 -14 -2 -18 -10 -4 -9 -6 1 -6 11 -1 10 -5 -5 -17 -10 -8 -13 -13 -6 -9 16 8
16 -7 0 -24 -11 -11 -10 -12 0 -6 16 8 13 -26 -3 -38 -6 -4 -4 -11 5 -17 12
-8 12 -10 -5 -10 -17 0 -17 -2 -5 -10 13 -9 13 -10 0 -10 -13 0 -13 -1 0 -10
8 -5 10 -10 4 -10 -7 0 -9 -11 -6 -26 4 -21 2 -25 -9 -19 -12 7 -12 6 -1 -7 9
-11 10 -18 2 -23 -5 -3 -10 -11 -10 -16 0 -6 4 -7 10 -4 6 3 10 1 10 -4 0 -6
-5 -11 -11 -11 -6 0 -9 -9 -6 -20 3 -11 0 -20 -5 -20 -6 0 -5 -6 2 -15 9 -11
9 -15 1 -15 -7 0 -9 -4 -6 -10 3 -5 0 -10 -7 -10 -9 0 -9 -3 2 -10 9 -6 11
-13 5 -18 -5 -4 -10 -20 -10 -37 0 -16 -4 -36 -10 -44 -8 -12 -7 -13 5 -7 9 4
8 1 -2 -7 -19 -15 -25 -32 -8 -22 6 3 10 -1 10 -9 0 -9 -5 -16 -11 -16 -6 0
-9 -10 -7 -22 2 -13 -4 -29 -12 -36 -13 -12 -13 -13 3 -8 17 5 17 4 2 -16 -18
-26 -20 -42 -4 -32 6 3 5 -4 -3 -17 -8 -13 -14 -34 -13 -47 1 -12 -1 -22 -5
-22 -6 0 -10 -34 -10 -87 0 -13 -6 -23 -12 -23 -9 0 -9 -3 -1 -11 12 -12 6
-49 -9 -49 -5 0 -4 -10 3 -21 6 -12 7 -19 1 -15 -5 3 -13 -2 -16 -11 -4 -9 -1
-20 6 -25 11 -6 10 -8 0 -8 -7 0 -10 -4 -7 -10 3 -5 0 -10 -7 -11 -7 0 -4 -4
7 -9 11 -5 14 -9 7 -9 -7 -1 -16 -11 -21 -23 -6 -17 -4 -25 8 -30 14 -6 14 -7
1 -7 -11 -1 -17 -13 -18 -38 -2 -20 -7 -42 -12 -48 -6 -7 -5 -16 2 -23 8 -8 7
-13 -6 -18 -14 -5 -14 -9 -4 -22 11 -13 10 -15 -6 -9 -16 6 -17 5 -6 -8 10
-12 10 -18 -1 -32 -12 -15 -12 -16 1 -8 13 7 13 6 2 -7 -10 -13 -10 -17 0 -21
10 -4 10 -6 1 -6 -7 -1 -13 -6 -13 -12 0 -5 6 -7 13 -3 8 5 8 2 -2 -9 -11 -14
-11 -17 0 -17 10 0 11 -2 2 -8 -6 -4 -10 -26 -9 -50 1 -24 -2 -46 -7 -49 -6
-3 -2 -12 8 -19 10 -8 16 -17 12 -20 -4 -4 -1 -14 6 -22 10 -13 9 -14 -1 -8
-11 7 -11 4 -1 -12 7 -12 16 -19 20 -16 4 2 11 -1 15 -7 4 -7 3 -9 -4 -5 -6 3
-13 2 -17 -4 -3 -5 0 -10 8 -10 8 0 21 -8 28 -17 10 -11 10 -14 2 -9 -8 4 -13
2 -13 -4 0 -7 8 -9 22 -5 17 6 20 4 14 -10 -6 -16 -4 -16 11 -4 9 8 14 9 11 4
-4 -6 -3 -17 3 -25 6 -11 9 -12 9 -2 0 7 5 10 10 7 6 -4 7 -12 4 -18 -4 -7 -3
-9 1 -4 5 4 17 -1 27 -10 18 -16 18 -16 12 3 -7 17 -6 17 9 6 9 -8 21 -11 26
-8 5 4 14 -2 20 -11 6 -10 11 -13 11 -8 0 14 43 14 53 1 4 -7 10 -8 15 -1 11
15 46 19 36 4 -5 -8 -3 -10 7 -4 7 5 37 10 66 11 44 2 52 0 43 -11 -9 -10 -7
-13 7 -11 10 2 21 -2 25 -8 5 -7 8 -7 8 2 0 10 5 9 17 -4 16 -15 17 -15 24 2
7 18 8 18 8 1 1 -15 4 -16 22 -6 15 8 19 8 15 0 -4 -6 -2 -11 3 -11 6 0 11 5
11 12 0 9 3 9 12 0 9 -9 15 -7 25 6 14 16 14 16 9 0 -4 -15 -2 -16 14 -6 10 7
16 16 14 20 -3 4 2 8 11 8 10 0 13 -5 9 -12 -4 -7 3 -4 16 7 14 12 20 14 15 5
-5 -10 -1 -8 13 4 20 17 22 17 28 2 3 -9 12 -16 20 -16 8 0 14 -5 14 -12 0 -6
3 -8 6 -5 4 4 1 14 -7 23 -13 16 -12 16 9 3 12 -8 22 -18 22 -23 0 -4 8 -2 17
5 15 12 16 12 10 -3 -4 -12 -2 -15 9 -11 8 3 21 0 28 -6 10 -8 16 -9 21 -1 3
5 19 10 34 10 15 0 32 5 39 12 9 9 12 9 12 -1 0 -7 5 -9 10 -6 6 4 8 11 5 16
-4 5 -1 9 4 9 6 0 11 -5 11 -12 0 -6 7 -3 15 8 12 15 16 16 24 5 7 -11 9 -11
14 0 4 10 6 10 6 2 1 -7 6 -13 12 -13 5 0 7 5 3 11 -9 14 38 -10 48 -25 5 -7
8 -6 8 4 0 13 2 13 10 0 5 -9 22 -13 47 -12 28 2 34 0 23 -8 -8 -5 -10 -10 -4
-10 6 0 14 3 18 7 12 12 36 12 36 0 0 -9 2 -9 8 0 4 7 22 13 40 15 23 2 31 6
27 17 -4 11 -2 11 8 2 11 -9 17 -7 28 6 13 17 13 17 -6 3 -20 -15 -20 -14 -1
8 15 17 22 19 28 10 4 -7 8 -8 8 -3 0 6 -5 16 -10 23 -6 6 -7 10 -3 7 13 -10
37 40 34 73 -2 26 0 32 11 26 11 -6 11 -5 0 8 -9 12 -10 18 -2 23 8 5 8 10 0
20 -6 7 -7 16 -3 18 5 3 8 35 7 71 -1 45 2 63 10 59 6 -4 2 4 -9 17 -11 13
-14 20 -7 16 6 -4 12 -3 12 3 0 5 -6 12 -12 14 -7 3 -4 6 7 6 14 1 16 4 8 9
-7 5 -15 22 -17 40 -2 17 1 29 5 26 5 -3 9 0 9 5 0 6 -6 11 -12 11 -9 0 -8 4
2 10 10 7 11 10 2 10 -8 0 -10 8 -6 25 4 17 2 25 -7 25 -11 0 -11 2 0 9 12 8
12 12 -2 25 -17 17 -13 46 6 46 6 0 2 7 -9 15 -13 10 -14 14 -5 15 11 0 11 3
1 15 -10 12 -10 15 1 15 12 0 12 2 0 9 -8 5 -12 19 -9 35 3 14 1 26 -4 26 -5
0 -7 4 -4 9 4 5 0 12 -6 14 -8 3 -5 6 5 6 17 1 17 2 3 17 -9 8 -16 21 -16 27
0 8 4 7 9 -2 7 -10 9 -7 8 12 -1 14 -6 23 -11 19 -5 -3 -7 5 -4 16 4 13 1 22
-5 22 -7 0 -5 5 3 10 13 9 13 10 0 10 -13 0 -13 1 0 10 12 8 12 10 -5 10 -15
0 -17 3 -7 9 8 4 14 12 14 16 0 4 -6 12 -14 16 -10 7 -10 9 2 9 11 0 12 2 3 8
-7 4 -13 27 -14 50 -2 23 -7 42 -12 42 -5 0 -4 7 3 15 10 12 10 15 0 15 -9 0
-9 4 1 17 12 14 12 16 0 8 -11 -6 -13 -3 -9 13 5 16 2 22 -10 22 -11 0 -13 3
-6 8 12 7 15 42 4 42 -3 0 -6 9 -7 20 -1 11 4 20 10 20 8 0 8 3 2 8 -12 9 -19
30 -18 60 1 12 -4 22 -10 22 -8 0 -8 3 0 11 14 14 5 51 -11 42 -6 -3 -2 4 9
17 11 13 15 20 9 17 -7 -4 -14 2 -17 13 -3 11 -1 18 4 14 5 -3 4 7 -1 21 -6
15 -8 31 -4 36 3 5 -1 9 -8 9 -9 0 -9 3 2 10 12 8 12 10 1 10 -11 0 -11 3 0
17 8 9 9 14 3 10 -7 -4 -14 2 -17 13 -4 14 0 20 11 20 15 0 15 2 2 10 -18 11
-20 30 -7 48 7 9 6 11 -7 6 -19 -7 -21 7 -4 24 9 9 9 12 0 12 -6 0 -11 11 -10
25 2 16 7 24 15 21 7 -3 15 -1 18 5 4 5 3 8 -2 7 -4 -2 -8 2 -8 7 0 6 4 9 10
7 5 -2 18 -4 28 -5 12 -1 17 -7 14 -19 -3 -10 -1 -15 4 -12 5 3 12 -2 15 -10
3 -9 10 -13 15 -10 5 3 9 -2 9 -11 0 -11 5 -15 15 -11 13 4 14 2 5 -14 -6 -11
-7 -20 -3 -19 19 5 41 -14 36 -29 -5 -12 -2 -14 12 -9 15 6 16 5 5 -8 -10 -12
-10 -15 3 -15 8 0 17 -13 21 -31 5 -24 9 -29 19 -21 10 9 13 5 11 -19 -2 -24
1 -28 11 -19 11 9 12 7 8 -11 -4 -15 -3 -20 5 -15 11 7 16 -7 15 -41 0 -7 4
-11 11 -10 6 1 10 -3 9 -10 -2 -8 4 -10 14 -6 11 4 14 3 9 -5 -4 -7 -2 -12 4
-12 7 0 10 -6 7 -14 -4 -10 0 -13 14 -11 11 2 17 0 14 -6 -4 -5 -1 -9 6 -9 8
0 9 -3 0 -14 -9 -11 -6 -13 15 -10 19 2 24 -1 20 -13 -4 -11 -2 -13 9 -10 8 4
17 1 21 -5 4 -7 3 -8 -4 -4 -7 4 -12 3 -12 -3 0 -5 9 -13 20 -16 11 -4 18 -10
15 -14 -7 -12 41 -34 56 -26 8 5 10 4 5 -3 -4 -7 -3 -12 3 -12 5 0 12 6 14 13
3 6 6 1 6 -12 1 -24 1 -24 17 -5 8 10 13 14 10 8 -3 -7 1 -15 10 -18 10 -4 13
-2 8 6 -5 8 -2 9 11 4 15 -5 16 -4 6 8 -10 12 -9 14 7 9 11 -2 23 1 27 8 6 8
4 10 -4 4 -10 -6 -11 -3 -2 14 7 11 14 21 17 21 3 0 2 -5 -2 -12 -4 -7 -3 -8
4 -4 6 4 9 13 6 20 -3 7 2 16 12 20 13 5 14 9 4 21 -13 16 -4 39 12 29 7 -4 8
-2 4 5 -4 6 -13 8 -19 4 -7 -3 -4 3 6 14 11 12 14 24 9 27 -6 3 -8 16 -4 28 4
16 2 19 -9 13 -12 -7 -12 -6 -1 7 7 9 11 28 8 42 -3 14 0 28 5 31 5 4 9 11 9
16 0 6 -4 8 -8 5 -4 -2 -8 4 -8 14 0 10 4 16 8 14 9 -6 6 26 -5 43 -4 7 0 16
10 22 10 6 13 11 7 11 -12 0 -12 29 0 48 4 6 3 12 -3 12 -10 0 -9 19 2 37 5 8
3 13 -4 13 -8 0 -8 4 1 15 10 12 10 15 0 15 -10 0 -10 3 0 15 9 11 9 15 1 15
-7 0 -9 5 -4 13 11 18 11 57 0 57 -5 0 -3 7 4 17 11 13 11 17 1 21 -10 3 -10
7 -1 18 6 8 7 14 2 14 -11 0 -11 36 0 46 12 12 8 26 -5 18 -10 -6 -10 -4 0 8
8 10 9 18 3 22 -14 9 -2 37 13 30 6 -3 2 2 -8 10 -11 9 -14 16 -8 16 7 0 12
14 12 31 0 21 -4 28 -12 23 -7 -4 -4 3 7 16 11 13 15 20 9 17 -7 -4 -15 0 -18
9 -3 8 -2 13 3 9 14 -8 11 88 -2 104 -10 12 -9 13 2 6 11 -7 13 -1 8 29 -4 24
-2 34 5 30 6 -4 7 0 1 12 -10 24 -10 55 1 73 6 9 5 12 -1 8 -6 -4 -13 0 -17 8
-3 8 0 17 6 21 7 5 8 2 3 -6 -5 -9 -4 -11 3 -6 8 5 9 13 3 24 -4 9 -6 26 -4
37 7 32 4 67 -7 81 -7 8 -7 14 -1 18 5 4 8 18 5 32 -3 16 -1 23 6 19 6 -3 7 0
4 9 -3 9 -11 16 -16 16 -6 0 -6 6 1 14 7 9 8 17 2 20 -10 7 -9 25 2 44 5 6 4
12 0 12 -5 0 -9 9 -9 20 0 11 3 20 6 20 3 0 6 11 6 25 1 14 -2 23 -6 20 -4 -3
-7 15 -6 40 1 35 -2 45 -14 45 -9 0 -11 3 -5 8 12 8 16 44 5 37 -4 -3 -11 2
-14 11 -10 25 -7 27 11 13 9 -8 5 2 -10 22 -15 20 -24 39 -19 44 4 5 1 5 -5 1
-9 -5 -13 0 -13 14 0 14 -4 19 -12 14 -7 -5 -9 -2 -5 8 8 21 -3 30 -20 17 -9
-8 -13 -8 -13 -1 0 16 -49 62 -65 62 -10 0 -12 6 -8 18 6 14 4 15 -9 4 -12
-10 -17 -10 -27 1 -6 8 -8 17 -4 21 4 4 -4 5 -19 2 -19 -3 -25 -1 -22 8 3 7
-3 19 -12 27 -15 12 -16 12 -10 0 6 -9 5 -12 -5 -9 -8 3 -13 11 -11 17 1 7 -2
10 -8 6 -5 -3 -10 -1 -10 6 0 8 -4 8 -15 -1 -9 -7 -18 -10 -22 -6 -3 3 0 6 8
6 12 0 12 2 -1 10 -9 6 -17 5 -22 -3 -5 -8 -8 -5 -8 8 0 14 -3 16 -8 7 -7 -9
-15 -10 -35 -3 -16 6 -29 7 -32 1 -3 -5 -13 -6 -22 -3 -10 4 -14 2 -10 -4 5
-8 -4 -8 -29 -3 -26 6 -32 5 -25 -4 7 -8 3 -12 -15 -14 -33 -3 -46 -11 -38
-24 4 -7 2 -8 -5 -4 -6 4 -9 12 -6 17 4 5 1 9 -4 9 -6 0 -11 -10 -12 -22 0
-13 -3 -17 -6 -11 -3 10 -10 10 -25 2 -15 -8 -19 -8 -14 0 4 6 0 11 -8 11 -19
0 -21 16 -5 26 8 4 6 10 -6 17 -14 8 -15 11 -4 18 12 7 11 9 -1 9 -13 0 -13 1
0 11 11 8 12 12 2 16 -6 2 -9 10 -5 16 13 20 12 41 0 49 -9 6 -9 8 1 8 10 0
10 5 2 20 -8 15 -8 20 2 20 10 0 10 2 -1 9 -8 5 -10 14 -5 22 4 7 8 28 9 46 0
26 -3 32 -15 28 -9 -3 -7 1 4 10 11 8 15 15 10 15 -6 0 -11 7 -11 15 0 8 5 15
11 15 6 0 4 5 -4 10 -8 5 -11 10 -6 10 5 0 3 7 -4 15 -11 13 -10 14 6 9 16 -6
17 -5 7 7 -16 16 -17 33 -2 23 6 -3 3 6 -7 22 -11 15 -14 25 -7 21 6 -4 14 -3
18 3 3 5 1 10 -6 10 -7 0 -9 3 -6 7 4 3 1 13 -6 21 -10 13 -9 15 8 8 19 -7 19
-6 4 10 -13 12 -15 23 -9 45 5 16 5 27 1 24 -5 -2 -8 12 -7 33 1 22 7 40 16
44 10 5 7 7 -10 8 l-25 1 24 10 c20 8 22 11 10 26 -8 9 -9 14 -3 10 6 -4 20 3
30 16 16 18 16 19 2 8 -10 -7 -18 -9 -18 -3 0 16 26 22 39 9 10 -9 12 -9 9 3
-2 8 2 14 9 15 6 0 15 4 20 9 4 5 3 6 -4 2 -6 -3 -14 -2 -17 3 -7 10 13 9 29
-1 6 -4 17 -3 25 2 10 6 21 3 35 -8 19 -16 19 -16 6 1 -7 9 -10 17 -6 17 5 0
17 -8 28 -17 11 -10 17 -12 13 -5 -4 6 -2 12 3 12 6 0 11 -5 11 -11 0 -5 5 -7
10 -4 6 3 10 2 10 -2 0 -5 12 -10 28 -11 15 -1 29 -7 30 -12 2 -6 13 -10 25
-10 18 0 19 2 7 10 -9 6 -10 10 -3 10 6 0 15 -4 18 -10 8 -13 46 11 38 25 -3
5 0 4 8 -2 16 -16 29 -17 29 -2 0 5 -6 7 -12 3 -9 -5 -9 -3 1 9 7 9 17 15 21
12 5 -3 12 0 16 6 4 8 3 9 -4 5 -7 -4 -13 -4 -13 1 -6 35 -5 52 2 47 5 -3 9 0
9 5 0 6 -5 11 -10 11 -7 0 -7 6 -1 19 8 14 5 23 -10 40 -18 19 -18 21 -2 22
11 0 7 4 -11 11 -21 8 -25 13 -15 19 11 6 9 15 -11 41 -14 19 -17 27 -7 19 15
-12 17 -12 11 2 -3 9 -14 19 -25 22 -10 4 -18 9 -18 13 4 25 -2 42 -13 36 -7
-5 -9 -2 -5 9 4 11 2 14 -9 10 -8 -3 -14 -2 -13 3 4 24 -2 33 -18 27 -10 -3
-15 -3 -11 2 8 9 -15 35 -32 35 -6 0 -9 4 -6 8 3 5 -1 9 -9 9 -8 0 -12 -5 -9
-11 3 -6 -1 -3 -9 6 -8 10 -17 15 -20 11 -4 -3 -7 -2 -7 4 0 6 -7 14 -16 17
-12 5 -14 3 -8 -7 5 -7 -1 -1 -14 13 -13 14 -22 21 -20 15 2 -5 -1 -10 -7 -10
-5 0 -9 3 -8 6 1 3 -10 4 -24 1 -20 -4 -24 -2 -18 9 8 12 6 12 -8 0 -14 -11
-17 -11 -17 0 0 12 -2 12 -9 0 -7 -11 -10 -11 -15 0 -5 11 -7 11 -12 2 -4 -9
-11 -10 -25 -3 -10 6 -19 8 -19 4 0 -3 -8 0 -17 7 -9 8 -14 9 -10 3z m492
-374 c3 -5 2 -10 -4 -10 -5 0 -13 5 -16 10 -3 6 -2 10 4 10 5 0 13 -4 16 -10z
m-1925 -984 c0 -3 -4 -8 -10 -11 -5 -3 -10 -1 -10 4 0 6 5 11 10 11 6 0 10 -2
10 -4z m-149 -109 c-6 -8 -7 -18 -3 -22 4 -5 1 -5 -6 -1 -10 6 -10 11 -1 22 6
8 14 14 16 14 3 0 0 -6 -6 -13z m2364 -556 c3 -5 2 -12 -3 -15 -5 -3 -9 1 -9
9 0 17 3 19 12 6z m-28 -1277 c-3 -3 -12 -4 -19 -1 -8 3 -5 6 6 6 11 1 17 -2
13 -5z m-179 -69 c-3 -3 -9 2 -12 12 -6 14 -5 15 5 6 7 -7 10 -15 7 -18z"/>
<path d="M3660 4500 c0 -6 7 -10 15 -10 8 0 15 2 15 4 0 2 -7 6 -15 10 -8 3
-15 1 -15 -4z"/>
<path d="M1763 3635 c0 -8 4 -12 9 -9 5 3 6 10 3 15 -9 13 -12 11 -12 -6z"/>
<path d="M3943 3125 c0 -8 4 -12 9 -9 5 3 6 10 3 15 -9 13 -12 11 -12 -6z"/>
<path d="M3946 2327 c3 -10 9 -15 12 -12 3 3 0 11 -7 18 -10 9 -11 8 -5 -6z"/>
<path d="M3405 921 c-3 -5 -2 -12 3 -15 5 -3 9 1 9 9 0 17 -3 19 -12 6z"/>
</g>
</svg>
